# xmcd CD database file
#
# Track frame offsets:
#	150
#	32597
#	66125
#	89020
#	117118
#	124875
#
# Disc length: 2216 seconds
#
# Revision: 0
# Processed by: cddbd v1.4PL0 Copyright (c) Steve Scherf et al.
# Submitted via: CDex 1.50
#
DISCID=4d08a606
DTITLE=Al DiMeola - Elegant Gypsy
DYEAR=1900
DGENRE=Jazz
TTITLE0=Flight Over Rio
TTITLE1=Midnight Tango
TTITLE2=Mediterranean Sundance
TTITLE3=Race With The Devil on Spanish Highway
TTITLE4=Lady Of Rome, Sister Of Brazil
TTITLE5=Elegant Gypsy
EXTD=
EXTT0=
EXTT1=
EXTT2=
EXTT3=
EXTT4=
EXTT5=
PLAYORDER=
